<svg
        width="55"
        height="54"
        viewBox="0 0 55 54"
        fill="none"
        xmlns="http://www.w3.org/2000/svg"
>
    <path
            d="M53.9364 24.0885L39.5428 18.7607L34.1681 1.14515C33.961 0.465822 33.3318 0 32.6218 0C31.9117 0 31.2825 0.465822 31.0755 1.14515L25.7024 18.7607L11.3072 24.0885C10.6715 24.3247 10.251 24.928 10.251 25.6057C10.251 26.2818 10.6715 26.8883 11.3072 27.1228L25.6943 32.4491L31.0707 50.6016C31.2745 51.2874 31.9053 51.7581 32.6218 51.7581C33.3367 51.7581 33.9691 51.2874 34.1729 50.6L39.5493 32.4475L53.938 27.1212C54.5704 26.8883 54.9926 26.2834 54.9926 25.6057C54.9926 24.9296 54.5704 24.3247 53.9364 24.0885Z"
            fill="#FFAC33"
    />
    <path
            d="M21.588 41.882L17.8452 40.4975L16.3895 35.16C16.1987 34.4548 15.5598 33.9663 14.8303 33.9663C14.1008 33.9663 13.4619 34.4548 13.2695 35.1583L11.8138 40.4959L8.07264 41.8804C7.43699 42.1149 7.01645 42.7215 7.01645 43.3976C7.01645 44.0737 7.43699 44.6802 8.07264 44.9147L11.7944 46.2944L13.2614 52.1528C13.4425 52.8709 14.0879 53.3756 14.8303 53.3756C15.5727 53.3756 16.2181 52.8709 16.3992 52.1512L17.8662 46.2928L21.588 44.9131C22.2236 44.6802 22.6442 44.0737 22.6442 43.3976C22.6442 42.7215 22.2236 42.1149 21.588 41.882ZM14.5715 6.84344L10.7479 5.42818L9.33101 1.60294C9.09648 0.967287 8.49156 0.546753 7.81385 0.546753C7.13776 0.546753 6.53284 0.967287 6.29669 1.60294L4.88143 5.42818L1.05619 6.84344C0.420534 7.07959 0 7.68451 0 8.3606C0 9.03669 0.420534 9.64323 1.05619 9.87776L4.88143 11.293L6.29669 15.1183C6.53284 15.7539 7.13776 16.1745 7.81385 16.1745C8.48994 16.1745 9.09486 15.7539 9.33101 15.1183L10.7463 11.293L14.5715 9.87776C15.2072 9.64161 15.6277 9.03669 15.6277 8.3606C15.6277 7.68451 15.2072 7.07959 14.5715 6.84344Z"
            fill="#FFCC4D"
    />
</svg>
