<svg width="1086" height="757" xmlns="http://www.w3.org/2000/svg" xmlns:xlink="http://www.w3.org/1999/xlink" xml:space="preserve" overflow="hidden"><defs><clipPath id="clip0"><rect x="2924" y="288" width="1086" height="757"/></clipPath></defs><g clip-path="url(#clip0)" transform="translate(-2924 -288)"><path d="M3412.18 924.45 3412.5 954.332C3412.5 998.055 3377.06 1033.5 3333.33 1033.5L3016.67 1033.5C2972.94 1033.5 2937.5 998.055 2937.5 954.332L2937.5 637.668C2937.5 593.945 2972.94 558.5 3016.67 558.5L3333.33 558.5C3377.06 558.5 3412.5 593.945 3412.5 637.668 3412.01 661.826 3412.67 594.302 3411.95 730.541" stroke="#2892D7" stroke-width="20.625" stroke-linecap="butt" stroke-linejoin="miter" stroke-miterlimit="8" stroke-opacity="1" fill="none" fill-rule="evenodd"/><path d="M3175 706.5C3195.37 706.5 3211.89 722.996 3211.89 743.345 3211.89 753.519 3207.76 762.73 3201.08 769.398L3197.88 771.552 3228.5 885.5 3121.5 885.5 3152.12 771.552 3148.92 769.398C3142.24 762.73 3138.12 753.519 3138.12 743.345 3138.12 722.996 3154.63 706.5 3175 706.5Z" stroke="#2892D7" stroke-width="20.625" stroke-linecap="butt" stroke-linejoin="miter" stroke-miterlimit="8" stroke-opacity="1" fill="none" fill-rule="evenodd"/><path d="M3285.5 714.5C3285.5 695.17 3301.39 679.5 3321 679.5 3340.61 679.5 3356.5 695.17 3356.5 714.5 3356.5 733.83 3340.61 749.5 3321 749.5 3301.39 749.5 3285.5 733.83 3285.5 714.5Z" stroke="#2892D7" stroke-width="20.625" stroke-linecap="butt" stroke-linejoin="miter" stroke-miterlimit="8" stroke-opacity="1" fill="none" fill-rule="evenodd"/><path d="M3644.5 749.5 3688.67 749.5" stroke="#2892D7" stroke-width="20.625" stroke-linecap="round" stroke-linejoin="miter" stroke-miterlimit="8" stroke-opacity="1" fill="none" fill-rule="evenodd"/><path d="M3345.5 739.5 3357.48 749.78" stroke="#2892D7" stroke-width="20.625" stroke-linecap="round" stroke-linejoin="miter" stroke-miterlimit="8" stroke-opacity="1" fill="none" fill-rule="evenodd"/><path d="M3540.5 729.5 3576.52 729.5" stroke="#2892D7" stroke-width="20.625" stroke-linecap="round" stroke-linejoin="miter" stroke-miterlimit="8" stroke-opacity="1" fill="none" fill-rule="evenodd"/><path d="M3644.5 679.5 3644.5 749.71" stroke="#2892D7" stroke-width="20.625" stroke-linecap="round" stroke-linejoin="miter" stroke-miterlimit="8" stroke-opacity="1" fill="none" fill-rule="evenodd"/><path d="M3843.5 714.5 3878.27 714.501" stroke="#2892D7" stroke-width="20.625" stroke-linecap="round" stroke-linejoin="miter" stroke-miterlimit="8" stroke-opacity="1" fill="none" fill-rule="evenodd"/><path d="M3843.5 749.5 3887.67 749.5" stroke="#2892D7" stroke-width="20.625" stroke-linecap="round" stroke-linejoin="miter" stroke-miterlimit="8" stroke-opacity="1" fill="none" fill-rule="evenodd"/><path d="M3843.5 679.5 3887.67 679.5" stroke="#2892D7" stroke-width="20.625" stroke-linecap="round" stroke-linejoin="miter" stroke-miterlimit="8" stroke-opacity="1" fill="none" fill-rule="evenodd"/><path d="M3843.5 679.5 3843.5 749.71" stroke="#2892D7" stroke-width="20.625" stroke-linecap="round" stroke-linejoin="miter" stroke-miterlimit="8" stroke-opacity="1" fill="none" fill-rule="evenodd"/><path d="M3738.5 679.5 3738.5 749.71" stroke="#2892D7" stroke-width="20.625" stroke-linecap="round" stroke-linejoin="miter" stroke-miterlimit="8" stroke-opacity="1" fill="none" fill-rule="evenodd"/><path d="M3749.5 714.5 3785.8 749.605" stroke="#2892D7" stroke-width="20.625" stroke-linecap="round" stroke-linejoin="miter" stroke-miterlimit="8" stroke-opacity="1" fill="none" fill-rule="evenodd"/><path d="M0 0 37.8356 33.8506" stroke="#2892D7" stroke-width="20.625" stroke-linecap="round" stroke-linejoin="miter" stroke-miterlimit="8" stroke-opacity="1" fill="none" fill-rule="evenodd" transform="matrix(1 0 0 -1 3748.5 715.351)"/><path d="M3970.5 725.5 3970.5 749.674" stroke="#2892D7" stroke-width="20.625" stroke-linecap="round" stroke-linejoin="miter" stroke-miterlimit="8" stroke-opacity="1" fill="none" fill-rule="evenodd"/><path d="M0 0 25.3614 43.9946" stroke="#2892D7" stroke-width="20.625" stroke-linecap="round" stroke-linejoin="miter" stroke-miterlimit="8" stroke-opacity="1" fill="none" fill-rule="evenodd" transform="matrix(1 0 0 -1 3971.5 725.495)"/><path d="M3968.86 724.495 3943.5 680.5" stroke="#2892D7" stroke-width="20.625" stroke-linecap="round" stroke-linejoin="miter" stroke-miterlimit="8" stroke-opacity="1" fill="none" fill-rule="evenodd"/><path d="M3557.5 681.5 3591.19 749.36" stroke="#2892D7" stroke-width="20.625" stroke-linecap="round" stroke-linejoin="miter" stroke-miterlimit="8" stroke-opacity="1" fill="none" fill-rule="evenodd"/><path d="M0 0 33.69 67.86" stroke="#2892D7" stroke-width="20.625" stroke-linecap="round" stroke-linejoin="miter" stroke-miterlimit="8" stroke-opacity="1" fill="none" fill-rule="evenodd" transform="matrix(-1 0 0 1 3557.19 681.5)"/><path d="M3471.48 728.707C3470.96 740.575 3457.55 749.879 3441.55 749.488 3425.54 749.098 3412.99 739.16 3413.52 727.293 3413.52 727.267 3413.52 727.241 3413.52 727.215L3413.52 727.215C3412.93 739.081 3425.44 749.052 3441.44 749.486 3457.45 749.919 3470.9 740.651 3471.48 728.785 3471.48 728.759 3471.48 728.733 3471.48 728.707Z" stroke="#2892D7" stroke-width="20.625" stroke-linecap="butt" stroke-linejoin="miter" stroke-miterlimit="8" stroke-opacity="1" fill="none" fill-rule="evenodd"/><path d="M0 0 0.0162402 49.3564" stroke="#2892D7" stroke-width="20.625" stroke-linecap="round" stroke-linejoin="miter" stroke-miterlimit="8" stroke-opacity="1" fill="none" fill-rule="evenodd" transform="matrix(-1 0 0 1 3471.52 679.5)"/><text fill="#2892D7" fill-opacity="1" font-family="Calibri,Calibri_MSFontService,sans-serif" font-style="normal" font-variant="normal" font-weight="700" font-stretch="normal" font-size="46" text-anchor="start" direction="ltr" writing-mode="lr-tb" unicode-bidi="normal" text-decoration="none" transform="matrix(1 0 0 1 3421.01 842)">Q U A L I F I C A T I O N S<tspan fill="#2892D7" fill-opacity="1" font-family="Calibri,Calibri_MSFontService,sans-serif" font-style="normal" font-variant="normal" font-weight="700" font-stretch="normal" font-size="46" text-anchor="start" direction="ltr" writing-mode="lr-tb" unicode-bidi="normal" text-decoration="none" x="70.4688" y="55">P R O T E C T E D</tspan></text><path d="M3174.49 341.89C3119.33 341.89 3073.3 381.172 3062.66 433.392L3060.49 455.035 3060.84 455.035C3060.79 455.519 3060.74 456.003 3060.69 456.487L3060.43 456.487 3060.43 557.439 3288.73 558.273 3288.73 459.098C3288.82 458.227 3288.9 457.357 3288.99 456.487 3288.94 456.003 3288.89 455.519 3288.84 455.035L3288.49 455.035 3286.32 433.392C3275.67 381.172 3229.65 341.89 3174.49 341.89ZM3174.57 300.5C3259.58 300.5 3328.5 369.688 3328.5 455.035L3328.15 455.035 3328.15 458.555 3328.5 455.035 3328.5 458.555 3328.5 558.5 3019.5 557.326C3019.88 522.466 3020.26 489.895 3020.64 455.035 3020.64 369.688 3089.56 300.5 3174.57 300.5Z" stroke="#2892D7" stroke-width="20.625" stroke-linecap="butt" stroke-linejoin="miter" stroke-miterlimit="8" stroke-opacity="1" fill="none" fill-rule="evenodd"/></g></svg>