<svg width="1082" height="756" xmlns="http://www.w3.org/2000/svg" xmlns:xlink="http://www.w3.org/1999/xlink" xml:space="preserve" overflow="hidden"><defs><clipPath id="clip0"><rect x="1755" y="1503" width="1082" height="756"/></clipPath></defs><g clip-path="url(#clip0)" transform="translate(-1755 -1503)"><path d="M2241.18 2138.68 2241.5 2168.5C2241.5 2212.13 2206.06 2247.5 2162.33 2247.5L1845.67 2247.5C1801.94 2247.5 1766.5 2212.13 1766.5 2168.5L1766.5 1852.5C1766.5 1808.87 1801.94 1773.5 1845.67 1773.5L2162.33 1773.5C2206.06 1773.5 2241.5 1808.87 2241.5 1852.5 2241.01 1876.61 2241.67 1809.23 2240.95 1945.18" stroke="#2892D7" stroke-width="20.625" stroke-linecap="butt" stroke-linejoin="miter" stroke-miterlimit="8" stroke-opacity="1" fill="none" fill-rule="evenodd"/><path d="M2003.5 1920.5C2023.68 1920.5 2040.04 1937 2040.04 1957.34 2040.04 1967.52 2035.95 1976.73 2029.34 1983.4L2026.17 1985.55 2056.5 2099.5 1950.5 2099.5 1980.83 1985.55 1977.66 1983.4C1971.05 1976.73 1966.96 1967.52 1966.96 1957.34 1966.96 1937 1983.32 1920.5 2003.5 1920.5Z" stroke="#2892D7" stroke-width="20.625" stroke-linecap="butt" stroke-linejoin="miter" stroke-miterlimit="8" stroke-opacity="1" fill="none" fill-rule="evenodd"/><path d="M2114.5 1929.5C2114.5 1910.17 2130.17 1894.5 2149.5 1894.5 2168.83 1894.5 2184.5 1910.17 2184.5 1929.5 2184.5 1948.83 2168.83 1964.5 2149.5 1964.5 2130.17 1964.5 2114.5 1948.83 2114.5 1929.5Z" stroke="#2892D7" stroke-width="20.625" stroke-linecap="butt" stroke-linejoin="miter" stroke-miterlimit="8" stroke-opacity="1" fill="none" fill-rule="evenodd"/><path d="M2472.5 1964.5 2516.67 1964.5" stroke="#2892D7" stroke-width="20.625" stroke-linecap="round" stroke-linejoin="miter" stroke-miterlimit="8" stroke-opacity="1" fill="none" fill-rule="evenodd"/><path d="M2174.5 1953.5 2186.48 1963.78" stroke="#2892D7" stroke-width="20.625" stroke-linecap="round" stroke-linejoin="miter" stroke-miterlimit="8" stroke-opacity="1" fill="none" fill-rule="evenodd"/><path d="M2369.5 1944.5 2405.52 1944.5" stroke="#2892D7" stroke-width="20.625" stroke-linecap="round" stroke-linejoin="miter" stroke-miterlimit="8" stroke-opacity="1" fill="none" fill-rule="evenodd"/><path d="M2472.5 1894.5 2472.5 1964.71" stroke="#2892D7" stroke-width="20.625" stroke-linecap="round" stroke-linejoin="miter" stroke-miterlimit="8" stroke-opacity="1" fill="none" fill-rule="evenodd"/><path d="M2671.5 1929.5 2706.27 1929.5" stroke="#2892D7" stroke-width="20.625" stroke-linecap="round" stroke-linejoin="miter" stroke-miterlimit="8" stroke-opacity="1" fill="none" fill-rule="evenodd"/><path d="M2671.5 1964.5 2715.67 1964.5" stroke="#2892D7" stroke-width="20.625" stroke-linecap="round" stroke-linejoin="miter" stroke-miterlimit="8" stroke-opacity="1" fill="none" fill-rule="evenodd"/><path d="M2671.5 1893.5 2715.67 1893.5" stroke="#2892D7" stroke-width="20.625" stroke-linecap="round" stroke-linejoin="miter" stroke-miterlimit="8" stroke-opacity="1" fill="none" fill-rule="evenodd"/><path d="M2671.5 1894.5 2671.5 1964.71" stroke="#2892D7" stroke-width="20.625" stroke-linecap="round" stroke-linejoin="miter" stroke-miterlimit="8" stroke-opacity="1" fill="none" fill-rule="evenodd"/><path d="M2567.5 1894.5 2567.5 1964.71" stroke="#2892D7" stroke-width="20.625" stroke-linecap="round" stroke-linejoin="miter" stroke-miterlimit="8" stroke-opacity="1" fill="none" fill-rule="evenodd"/><path d="M2578.5 1929.5 2614.8 1964.61" stroke="#2892D7" stroke-width="20.625" stroke-linecap="round" stroke-linejoin="miter" stroke-miterlimit="8" stroke-opacity="1" fill="none" fill-rule="evenodd"/><path d="M0 0 37.8356 33.8506" stroke="#2892D7" stroke-width="20.625" stroke-linecap="round" stroke-linejoin="miter" stroke-miterlimit="8" stroke-opacity="1" fill="none" fill-rule="evenodd" transform="matrix(1 0 0 -1 2576.5 1930.35)"/><path d="M2798.5 1940.5 2798.5 1964.67" stroke="#2892D7" stroke-width="20.625" stroke-linecap="round" stroke-linejoin="miter" stroke-miterlimit="8" stroke-opacity="1" fill="none" fill-rule="evenodd"/><path d="M0 0 25.3614 43.9946" stroke="#2892D7" stroke-width="20.625" stroke-linecap="round" stroke-linejoin="miter" stroke-miterlimit="8" stroke-opacity="1" fill="none" fill-rule="evenodd" transform="matrix(1 0 0 -1 2800.5 1940.49)"/><path d="M2797.86 1938.49 2772.5 1894.5" stroke="#2892D7" stroke-width="20.625" stroke-linecap="round" stroke-linejoin="miter" stroke-miterlimit="8" stroke-opacity="1" fill="none" fill-rule="evenodd"/><path d="M2386.5 1896.5 2420.19 1964.36" stroke="#2892D7" stroke-width="20.625" stroke-linecap="round" stroke-linejoin="miter" stroke-miterlimit="8" stroke-opacity="1" fill="none" fill-rule="evenodd"/><path d="M0 0 33.69 67.86" stroke="#2892D7" stroke-width="20.625" stroke-linecap="round" stroke-linejoin="miter" stroke-miterlimit="8" stroke-opacity="1" fill="none" fill-rule="evenodd" transform="matrix(-1 0 0 1 2386.19 1896.5)"/><path d="M2300.48 1942.72C2299.94 1954.59 2286.3 1963.89 2270.01 1963.49 2253.73 1963.09 2240.97 1953.15 2241.52 1941.28 2241.52 1941.25 2241.52 1941.23 2241.52 1941.2L2241.52 1941.2C2240.92 1953.07 2253.62 1963.04 2269.9 1963.49 2286.19 1963.93 2299.87 1954.66 2300.48 1942.8 2300.48 1942.77 2300.48 1942.75 2300.48 1942.72Z" stroke="#2892D7" stroke-width="20.625" stroke-linecap="butt" stroke-linejoin="miter" stroke-miterlimit="8" stroke-opacity="1" fill="none" fill-rule="evenodd"/><path d="M0 0 0.0162402 49.3564" stroke="#2892D7" stroke-width="20.625" stroke-linecap="round" stroke-linejoin="miter" stroke-miterlimit="8" stroke-opacity="1" fill="none" fill-rule="evenodd" transform="matrix(-1 0 0 1 2300.52 1893.5)"/><path d="M2002.99 1556.05C1947.65 1556.05 1901.48 1595.48 1890.8 1647.91L1888.62 1669.63 1888.97 1669.63C1888.93 1670.12 1888.88 1670.61 1888.83 1671.09L1888.57 1671.09 1888.57 1772.43 2117.6 1773.27 2117.6 1673.71C2117.69 1672.84 2117.77 1671.97 2117.86 1671.09 2117.81 1670.61 2117.76 1670.12 2117.72 1669.63L2117.36 1669.63 2115.18 1647.91C2104.5 1595.48 2058.33 1556.05 2002.99 1556.05ZM2003.07 1514.5C2088.36 1514.5 2157.5 1583.96 2157.5 1669.63L2157.15 1669.63 2157.15 1673.17 2157.5 1669.63 2157.5 1673.17 2157.5 1773.5 1847.5 1772.32C1847.88 1737.33 1848.26 1704.63 1848.64 1669.63 1848.64 1583.96 1917.78 1514.5 2003.07 1514.5Z" stroke="#2892D7" stroke-width="20.625" stroke-linecap="butt" stroke-linejoin="miter" stroke-miterlimit="8" stroke-opacity="1" fill="none" fill-rule="evenodd"/><path d="M474.675 365.95 475 395.832C475 439.555 439.555 475 395.832 475L79.1684 475C35.4447 475 0 439.555 0 395.832L0 79.1684C0 35.4447 35.4447 0 79.1684 0L395.832 0C439.555 0 475 35.4447 475 79.1684 474.51 103.326 475.165 35.8014 474.446 172.041" stroke="#2892D7" stroke-width="20.625" stroke-linecap="butt" stroke-linejoin="miter" stroke-miterlimit="8" stroke-opacity="1" fill="none" fill-rule="evenodd" transform="matrix(1 0 0 -1 1766.5 2247.5)"/></g></svg>